<?xml version="1.0" encoding="utf-8"?>
<svg version="1.1" id="Layer_1"
	 xmlns="http://www.w3.org/2000/svg"
	 xmlns:xlink="http://www.w3.org/1999/xlink"
	 x="0px" y="0px" width="35.9px" height="32px"
	 viewBox="0 0 54 32" xml:space="preserve">
<style type="text/css">
    .st0 { fill: #33373E; }
</style>
	<path class="st0" d="M47.5,10.4c-0.4-0.1-0.8-0.3-1.2-0.4c0.1-0.3,0.1-0.5,0.2-0.8c0.9-4.2,0.3-7.7-1.7-8.8c-1.9-1.1-4.9,0-8,2.7
	c-0.3,0.3-0.6,0.5-0.9,0.8c-0.2-0.2-0.4-0.4-0.6-0.5c-3.2-2.9-6.5-4.1-8.4-3c-1.9,1.1-2.4,4.3-1.6,8.3c0.1,0.4,0.2,0.8,0.3,1.2
	c-0.5,0.1-0.9,0.3-1.3,0.4C20.4,11.8,18,13.8,18,16c0,2.2,2.6,4.5,6.6,5.8c0.3,0.1,0.6,0.2,1,0.3c-0.1,0.4-0.2,0.9-0.3,1.3
	c-0.8,4-0.2,7.1,1.7,8.2c1.9,1.1,5.2,0,8.3-2.8c0.3-0.2,0.5-0.5,0.7-0.7c0.3,0.3,0.6,0.6,1,0.9c3.1,2.6,6.1,3.7,7.9,2.6
	c1.9-1.1,2.6-4.5,1.7-8.6c-0.1-0.3-0.1-0.6-0.2-1c0.2-0.1,0.5-0.1,0.7-0.2c4.1-1.4,6.8-3.6,6.8-5.8C53.9,13.8,51.4,11.7,47.5,10.4z
	 M46.6,20.4c-0.2,0.1-0.4,0.1-0.6,0.2c-0.5-1.4-1.1-3-1.8-4.6c0.7-1.5,1.3-3.1,1.7-4.5c0.4,0.1,0.7,0.2,1.1,0.3
	c3.3,1.1,5.4,2.8,5.4,4.1C52.4,17.4,50.2,19.2,46.6,20.4z M45.1,23.3c0.4,1.8,0.4,3.5,0.2,4.7c-0.2,1.2-0.6,1.9-1.2,2.2
	c-1.1,0.7-3.6-0.2-6.2-2.4c-0.3-0.3-0.6-0.5-0.9-0.8c1-1.1,2-2.4,3-3.8c1.7-0.2,3.4-0.4,4.9-0.8C45,22.7,45.1,23,45.1,23.3z
	 M30.2,30.1c-1.1,0.4-2,0.4-2.5,0.1c-1.1-0.7-1.6-3.2-1-6.6c0.1-0.4,0.2-0.8,0.3-1.2c1.5,0.3,3.1,0.6,4.8,0.7c1,1.4,2,2.7,3.1,3.8
	c-0.2,0.2-0.5,0.4-0.7,0.6C32.8,28.8,31.4,29.7,30.2,30.1z M25,20.4c-1.8-0.6-3.2-1.4-4.2-2.2c-0.9-0.8-1.3-1.5-1.3-2.1
	c0-1.3,2-3,5.2-4.1c0.4-0.1,0.8-0.3,1.2-0.4c0.4,1.5,1,3,1.8,4.5c-0.7,1.6-1.3,3.1-1.8,4.6C25.6,20.5,25.3,20.5,25,20.4z M26.8,8.5
	c-0.7-3.5-0.2-6.1,0.9-6.7c1.2-0.7,3.9,0.3,6.7,2.8c0.2,0.2,0.4,0.3,0.5,0.5c-1,1.1-2.1,2.4-3.1,3.8C30.1,9,28.5,9.3,27,9.6
	C26.9,9.3,26.8,8.9,26.8,8.5L26.8,8.5z M42.3,12.4c-0.4-0.6-0.7-1.2-1.1-1.8c1.1,0.1,2.2,0.3,3.3,0.6c-0.3,1-0.7,2-1.1,3.1
	C43,13.6,42.6,13,42.3,12.4z M35.9,6.2c0.7,0.8,1.4,1.6,2.1,2.6c-1.4-0.1-2.8-0.1-4.2,0C34.5,7.8,35.2,7,35.9,6.2z M29.6,12.4
	c-0.4,0.6-0.7,1.2-1,1.9c-0.4-1.1-0.8-2.1-1.1-3.1c1-0.2,2.1-0.4,3.3-0.6C30.3,11.2,29.9,11.8,29.6,12.4L29.6,12.4z M30.7,21.5
	c-1.2-0.1-2.3-0.3-3.3-0.5c0.3-1,0.7-2.1,1.2-3.2c0.3,0.6,0.7,1.2,1,1.9C30,20.3,30.3,20.9,30.7,21.5z M36,25.9
	c-0.7-0.8-1.5-1.7-2.2-2.6c0.7,0,1.4,0,2.1,0c0.7,0,1.5,0,2.2,0C37.4,24.2,36.7,25.1,36,25.9z M43.3,17.8c0.5,1.1,0.9,2.2,1.2,3.2
	c-1,0.2-2.2,0.4-3.4,0.6c0.4-0.6,0.7-1.2,1.1-1.8C42.6,19.1,43,18.4,43.3,17.8z M40.9,18.9c-0.5,0.9-1.1,1.9-1.7,2.8
	c-1.1,0.1-2.2,0.1-3.3,0.1c-1.1,0-2.2,0-3.3-0.1c-0.6-0.9-1.2-1.8-1.8-2.8h0C30.4,18,29.9,17,29.4,16c0.5-1,1-2,1.5-2.9l0,0
	c0.5-0.9,1.1-1.9,1.7-2.8c1.1-0.1,2.2-0.1,3.3-0.1h0c1.1,0,2.2,0,3.3,0.1c0.6,0.9,1.2,1.8,1.7,2.8c0.5,0.9,1.1,1.9,1.5,2.9
	C42,17,41.5,18,40.9,18.9z M44.1,1.8c1.2,0.7,1.7,3.5,0.9,7.2c0,0.2-0.1,0.5-0.2,0.7c-1.5-0.3-3.1-0.6-4.8-0.8c-1-1.4-2-2.7-3-3.8
	c0.3-0.3,0.5-0.5,0.8-0.8C40.5,2,43,1.1,44.1,1.8z M35.9,12.8c1.8,0,3.2,1.4,3.2,3.2s-1.4,3.2-3.2,3.2s-3.2-1.4-3.2-3.2
	S34.2,12.8,35.9,12.8z"/>
</svg>

